<svg version="1" xmlns="http://www.w3.org/2000/svg" width="512" height="512" viewBox="0 0 384.000000 384.000000"><path d="M167 40c-2.5.4-6.4 1-8.6 1.3-22.4 3.2-49.7 15.4-69.9 31.5-28.2 22.4-47.3 54.4-51.2 85.7-1 7.5-.9 30.3 0 36.9 5.8 39.2 31.4 75.2 65.3 92 42.5 20.9 95.2 8.3 123.7-29.7 12.4-16.5 17.7-33.3 17-54.2-.8-25.7-16.3-52.7-38-65.8-20.9-12.7-49.9-12.5-69.9.5-7.7 5-18.5 16.6-22.2 23.6-12.5 24.5-6.5 52.3 15 69.4 18.9 15 48 11.1 62.4-8.5 7.3-9.9 9.4-21.2 6.1-32.7-7.1-24.5-34.6-33.6-51.8-17.3-5.1 4.8-6.4 8.8-3.5 11.2 3.1 2.5 5.7 2.1 9.9-1.8 9.4-8.5 19.8-8.2 28.6.9 16.6 17.1 2.1 44.9-23.9 45.6-9.5.3-16.1-2-22.8-8.1-22.8-20.5-19.1-54.7 7.8-72 22.6-14.6 50.1-11.3 69.8 8.4 9 8.9 13.2 15.7 17.5 27.8 2.9 8.1 3.1 9.8 3.1 21.8.1 22.5-5.9 37.1-21.8 53-13.1 13.2-30.3 22.2-48.1 25.3-6.6 1.1-27.6.7-33.5-.7-33.4-7.9-60.6-33.1-73.3-67.6-11.8-32.1-8.7-68.9 8.3-97.4C85.6 81 126 55.6 170.5 51.3 194 49 219 52.8 239.8 61.7c42.3 18.1 77.6 57.8 93.1 104.8 18.1 54.8 10.4 112.3-21.5 160.2-4.1 6.1-7.4 12.1-7.4 13.2 0 2.2 3.5 5.1 6.2 5.1 3.4 0 15.7-17.9 23.9-34.6 10.1-20.8 16.3-42.1 18.6-63.9 1.5-13.3.8-42.4-1.1-52.1-.2-1.2-.7-3.9-1-5.9-3.5-21.7-15.1-50.3-29.1-71.4-9.5-14.4-25.8-32.6-37-41.3-1.6-1.2-3.9-3.1-5-4.1-3.5-3.2-15.7-10.9-25-15.8-12.8-6.8-30.6-12.5-48-15.5-5.1-.9-34.7-1.2-39.5-.4z"/></svg>